#N canvas 1034 433 450 300 10;
#X obj 158 36 / 20;
#X obj 158 57 + 0 4;
#X obj 102 115 hip~ 2000;
#X obj 105 186 dac~;
#X obj 183 -27 hsl 128 15 0.1 0.5 0 0 empty empty empty -2 -8 0 10
-262144 -1 -1 0 1;
#X obj 167 150 bp~ 100 0.5;
#X obj 103 82 ambientrain 10 0.1 0.16 3;
#X connect 0 0 1 0;
#X connect 1 0 6 1;
#X connect 2 0 5 0;
#X connect 2 0 3 0;
#X connect 2 0 3 1;
#X connect 4 0 0 0;
#X connect 6 0 2 0;
