#N canvas 476 264 461 379 10;
#X obj 73 25 noise~;
#X obj 130 24 inlet f;
#X obj 188 24 inlet q;
#X obj 248 25 inlet t;
#X obj 310 24 inlet a;
#X obj 73 72 bp~ \$1 \$2;
#X obj 73 111 clip~ 0 1;
#X obj 73 145 max~ \$3;
#X obj 73 178 -~ \$3;
#X obj 73 211 *~;
#X obj 73 242 *~;
#X obj 73 271 *~ 4;
#X obj 72 302 outlet~;
#X connect 0 0 5 0;
#X connect 1 0 5 1;
#X connect 2 0 5 2;
#X connect 3 0 7 1;
#X connect 4 0 11 1;
#X connect 5 0 6 0;
#X connect 6 0 7 0;
#X connect 7 0 8 0;
#X connect 8 0 9 0;
#X connect 8 0 9 1;
#X connect 9 0 10 0;
#X connect 9 0 10 1;
#X connect 10 0 11 0;
#X connect 11 0 12 0;
