#N canvas 912 314 712 485 10;
#X obj 182 89 noise~;
#X obj 185 250 *~;
#X obj 185 281 *~;
#X obj 185 310 *~ 4;
#X obj 237 90 / 20;
#X obj 181 164 clip~ 0.16 1;
#X obj 185 217 -~ 0.16;
#X obj 223 354 hip~ 2000;
#X obj 226 425 dac~;
#X floatatom 234 51 5 0.1 0.5 0 - - -;
#X obj 205 127 bp~ 100 0.1;
#X connect 0 0 10 0;
#X connect 1 0 2 0;
#X connect 1 0 2 1;
#X connect 2 0 3 0;
#X connect 3 0 7 0;
#X connect 4 0 10 2;
#X connect 5 0 6 0;
#X connect 6 0 1 0;
#X connect 6 0 1 1;
#X connect 7 0 8 0;
#X connect 7 0 8 1;
#X connect 9 0 4 0;
#X connect 10 0 5 0;
