#N canvas 66 82 450 603 10;
#X obj 184 166 *~;
#X obj 184 215 *~ 150;
#X msg 239 215 1;
#X msg 275 215 0.6;
#X obj 161 252 noise~;
#X obj 162 287 bp~ 8000 0.5;
#X obj 161 324 vcf~ 0 1;
#X obj 162 355 hip~ 120;
#X obj 161 388 *~ 120;
#X obj 162 417 clip~ -1 1;
#X obj 192 440 *~ 12000;
#X obj 163 478 vcf~ 0 0.6;
#X obj 204 103 inlet~;
#X obj 241 166 loadbang;
#X obj 163 507 outlet~;
#X connect 0 0 1 0;
#X connect 1 0 6 1;
#X connect 2 0 6 2;
#X connect 3 0 11 2;
#X connect 4 0 5 0;
#X connect 5 0 6 0;
#X connect 6 0 7 0;
#X connect 7 0 8 0;
#X connect 8 0 9 0;
#X connect 9 0 11 0;
#X connect 10 0 11 1;
#X connect 11 0 14 0;
#X connect 12 0 0 0;
#X connect 12 0 0 1;
#X connect 12 0 10 0;
#X connect 13 0 2 0;
#X connect 13 0 3 0;
