#N canvas 1409 222 450 762 10;
#X obj 139 232 lop~ 100;
#X obj 136 267 *~;
#X obj 30 113 osc~ 480;
#X obj 38 157 +~;
#X obj 129 373 dac~;
#X obj 87 111 osc~ 620;
#X obj 191 115 osc~ 2;
#X obj 195 150 *~ 10000;
#X obj 196 194 clip~ 0 1;
#X obj 139 325 *~ 0.1;
#X connect 0 0 1 1;
#X connect 1 0 9 0;
#X connect 2 0 3 0;
#X connect 3 0 1 0;
#X connect 5 0 3 1;
#X connect 6 0 7 0;
#X connect 7 0 8 0;
#X connect 8 0 0 0;
#X connect 9 0 4 0;
#X connect 9 0 4 1;
