#N canvas 1213 290 447 668 10;
#X obj 97 522 dac~;
#X obj 88 144 osc~ 350;
#X obj 117 171 osc~ 450;
#X msg 202 176 1;
#X msg 242 176 0;
#X obj 92 209 +~;
#X obj 95 244 *~;
#X obj 92 275 clip~ -0.9 0.9;
#X obj 89 309 bp~ 2000 12;
#X obj 48 346 *~ 0.5;
#X obj 118 345 clip~ -0.4 0.4;
#X obj 50 385 bp~ 4000 3;
#X obj 134 384 *~ 0.15;
#X obj 102 426 hip~ 90;
#X obj 98 470 hip~ 90;
#X connect 1 0 5 0;
#X connect 2 0 5 1;
#X connect 3 0 6 1;
#X connect 4 0 6 1;
#X connect 5 0 6 0;
#X connect 6 0 7 0;
#X connect 7 0 8 0;
#X connect 8 0 10 0;
#X connect 8 0 9 0;
#X connect 9 0 11 0;
#X connect 10 0 12 0;
#X connect 11 0 13 0;
#X connect 12 0 13 0;
#X connect 13 0 14 0;
#X connect 14 0 0 0;
#X connect 14 0 0 1;
