#N canvas 1028 169 635 703 10;
#X obj 312 50 sig~;
#X obj 311 73 lop~ 0.2;
#X obj 311 622 lop~ 11000;
#X obj 316 698 dac~;
#X obj 313 659 *~ 0.1;
#X obj 406 159 *~;
#X obj 406 208 *~ 150;
#X obj 383 245 noise~;
#X obj 384 280 bp~ 8000 0.5;
#X obj 383 317 vcf~ 0 1;
#X obj 384 348 hip~ 120;
#X obj 383 381 *~ 120;
#X obj 384 410 clip~ -1 1;
#X obj 414 433 *~ 12000;
#X obj 385 471 vcf~ 0 0.6;
#X floatatom 313 27 5 0.1 1 0 - - -;
#X msg 461 208 0;
#X msg 484 445 0;
#X connect 0 0 1 0;
#X connect 1 0 5 1;
#X connect 1 0 5 0;
#X connect 1 0 13 0;
#X connect 2 0 4 0;
#X connect 4 0 3 0;
#X connect 4 0 3 1;
#X connect 5 0 6 0;
#X connect 6 0 9 1;
#X connect 7 0 8 0;
#X connect 8 0 9 0;
#X connect 9 0 10 0;
#X connect 10 0 11 0;
#X connect 11 0 12 0;
#X connect 12 0 14 0;
#X connect 13 0 14 1;
#X connect 14 0 2 0;
#X connect 15 0 0 0;
#X connect 16 0 9 2;
#X connect 17 0 14 2;
