#N canvas 776 327 565 668 10;
#X obj 54 386 osc~ 723;
#X obj 118 382 osc~ 932;
#X obj 184 381 osc~ 1012;
#X obj 61 421 *~;
#X obj 119 420 *~;
#X obj 186 420 *~;
#X obj 107 465 *~ 0.2;
#X obj 110 515 dac~;
#X obj 75 341 cos~;
#X obj 140 341 cos~;
#X obj 208 345 cos~;
#X obj 72 295 -~ 0.25;
#X obj 141 297 -~ 0.25;
#X obj 213 299 -~ 0.25;
#X obj 76 248 *~ 0.5;
#X obj 146 248 *~ 0.5;
#X obj 216 249 *~ 0.5;
#X obj 150 208 -~ 1;
#X obj 215 209 -~ 2;
#X obj 67 162 clip~ 0 1;
#X obj 151 161 clip~ 1 2;
#X obj 226 159 clip~ 2 3;
#X obj 157 111 *~ 3;
#X obj 161 62 phasor~ 4;
#X obj 317 373 osc~ 440;
#X obj 321 420 *~;
#X obj 395 394 cos~ 90;
#X connect 0 0 3 0;
#X connect 1 0 4 0;
#X connect 2 0 5 0;
#X connect 6 0 7 0;
#X connect 6 0 7 1;
#X connect 8 0 3 1;
#X connect 9 0 4 1;
#X connect 10 0 5 1;
#X connect 11 0 8 0;
#X connect 12 0 9 0;
#X connect 13 0 10 0;
#X connect 14 0 11 0;
#X connect 15 0 12 0;
#X connect 16 0 13 0;
#X connect 17 0 15 0;
#X connect 18 0 16 0;
#X connect 19 0 14 0;
#X connect 20 0 17 0;
#X connect 21 0 18 0;
#X connect 22 0 19 0;
#X connect 22 0 20 0;
#X connect 22 0 21 0;
#X connect 23 0 22 0;
#X connect 24 0 25 0;
#X connect 25 0 7 1;
#X connect 26 0 25 1;
