#N canvas 1060 423 447 442 10;
#X obj 258 327 dac~;
#X msg 170 137 13;
#X msg 209 138 15;
#X msg 284 135 10;
#X msg 325 136 5;
#X obj 186 186 +;
#X obj 302 187 -;
#X obj 255 268 osc~;
#X obj 253 223 + 440;
#X obj 194 78 trigger b b b b;
#X obj 190 23 bng 15 250 50 0 empty empty empty 17 7 0 10 -261681 -166441 -166441;
#X obj 64 230 expr (4*(5-2))/4;
#X obj 67 177 bng 15 250 50 0 empty empty empty 17 7 0 10 -262144 -1 -1;
#X floatatom 61 279 5 0 0 0 - - -;
#X connect 1 0 5 0;
#X connect 2 0 5 1;
#X connect 3 0 6 0;
#X connect 4 0 6 1;
#X connect 5 0 8 0;
#X connect 6 0 8 0;
#X connect 7 0 0 0;
#X connect 7 0 0 1;
#X connect 8 0 7 0;
#X connect 9 0 1 0;
#X connect 9 1 2 0;
#X connect 9 2 3 0;
#X connect 10 0 9 0;
#X connect 11 0 13 0;
#X connect 12 0 11 0;
