#N canvas 889 555 450 300 10;
#X obj 120 194 osc~ 440;
#X msg 141 26 880;
#X obj 125 252 dac~;
#X floatatom 151 70 5 0 0 0 - - -;
#X obj 132 134 pow 2;
#X floatatom 222 93 5 0 0 0 - - -;
#X connect 0 0 2 0;
#X connect 3 0 4 0;
#X connect 4 0 0 0;
