#N canvas 1329 137 530 703 10;
#X obj 364 62 sig~;
#X obj 363 85 lop~ 0.2;
#X obj 367 563 *~ 0.5;
#X obj 365 599 +~;
#X obj 368 710 dac~;
#X obj 365 671 *~ 0.1;
#X obj 85 240 sig~;
#X obj 126 242 sig~;
#X obj 170 243 sig~;
#X obj 209 242 sig~;
#X obj 248 241 sig~;
#X msg 96 169 3097 4495 5588 7471 11000;
#X obj 88 281 *~;
#X obj 128 281 *~;
#X obj 170 281 *~;
#X obj 210 278 *~;
#X obj 250 278 *~;
#X obj 78 332 osc~;
#X obj 123 332 osc~;
#X obj 168 332 osc~;
#X obj 216 330 osc~;
#X obj 257 334 osc~;
#X obj 122 390 *~ 0.25;
#X obj 240 388 *~ 0.4;
#X obj 184 435 clip~ -0.9 0.9;
#X obj 110 201 unpack f f f f f;
#X floatatom 365 37 5 0.1 1 0 - - -;
#X obj 363 634 lop~ 11000;
#X connect 0 0 1 0;
#X connect 1 0 12 1;
#X connect 1 0 13 1;
#X connect 1 0 14 1;
#X connect 1 0 15 1;
#X connect 1 0 16 1;
#X connect 2 0 3 0;
#X connect 3 0 27 0;
#X connect 5 0 4 0;
#X connect 5 0 4 1;
#X connect 6 0 12 0;
#X connect 7 0 13 0;
#X connect 8 0 14 0;
#X connect 9 0 15 0;
#X connect 10 0 16 0;
#X connect 11 0 25 0;
#X connect 12 0 17 0;
#X connect 13 0 18 0;
#X connect 14 0 19 0;
#X connect 15 0 20 0;
#X connect 16 0 21 0;
#X connect 17 0 22 0;
#X connect 18 0 22 0;
#X connect 19 0 24 0;
#X connect 20 0 23 0;
#X connect 21 0 23 0;
#X connect 22 0 24 0;
#X connect 23 0 24 0;
#X connect 24 0 2 0;
#X connect 25 0 6 0;
#X connect 25 1 7 0;
#X connect 25 2 8 0;
#X connect 25 3 9 0;
#X connect 25 4 10 0;
#X connect 26 0 0 0;
#X connect 27 0 5 0;
