#N canvas 810 155 447 442 10;
#X floatatom 116 56 5 0 0 0 - - -;
#X obj 118 116 * 1;
#X floatatom 119 160 5 0 0 0 - - -;
#X obj 117 210 osc~;
#X obj 117 288 dac~;
#X connect 0 0 1 0;
#X connect 1 0 2 0;
#X connect 2 0 3 0;
#X connect 3 0 4 0;
