#N canvas 889 555 450 300 10;
#X obj 123 248 dac~;
#X obj 120 76 trigger bang bang;
#X floatatom 114 23 5 0 0 0 - - -;
#X obj 124 143 * 3;
#X obj 197 143 * 4;
#X floatatom 123 176 5 0 0 0 - - -;
#X floatatom 187 176 5 0 0 0 - - -;
#X obj 129 214 +;
#X msg 199 106 5;
#X msg 124 110 3;
#X obj 256 106 trigger 1 2 3 4 5 6 7 8 9;
#X connect 1 0 9 0;
#X connect 1 1 8 0;
#X connect 2 0 1 0;
#X connect 3 0 5 0;
#X connect 4 0 6 0;
#X connect 5 0 7 0;
#X connect 6 0 7 1;
#X connect 7 0 0 0;
#X connect 8 0 4 0;
#X connect 9 0 3 0;
