#N canvas 732 207 565 668 10;
#X obj 82 93 unpack f f;
#X obj 86 131 osc~;
#X obj 133 130 osc~;
#X obj 107 165 +~;
#X obj 96 321 dac~;
#X obj 108 253 hip~ 100;
#X obj 98 284 *~ 0.25;
#X msg 52 47 1209 697;
#X msg 121 48 1336 697;
#X msg 201 54 1477 697;
#X msg 206 140 1;
#X obj 109 205 *~;
#X msg 210 169 0;
#X connect 0 0 1 0;
#X connect 0 1 2 0;
#X connect 1 0 3 0;
#X connect 2 0 3 1;
#X connect 3 0 11 0;
#X connect 5 0 6 0;
#X connect 6 0 4 0;
#X connect 7 0 0 0;
#X connect 8 0 0 0;
#X connect 9 0 0 0;
#X connect 10 0 11 1;
#X connect 11 0 5 0;
#X connect 12 0 11 1;
