#N canvas 1087 553 450 383 10;
#X obj 184 143 fcounter;
#X floatatom 340 194 5 0 0 0 - - -;
#X obj 185 169 mod 2;
#X floatatom 115 172 5 0 0 0 - - -;
#X obj 187 326 dac~;
#X msg 189 87 100;
#X obj 184 209 sig~;
#X obj 183 244 *~;
#X obj 227 210 osc~ 2500;
#X obj 187 281 *~ 0.2;
#X connect 0 0 2 0;
#X connect 0 0 3 0;
#X connect 2 0 1 0;
#X connect 2 0 6 0;
#X connect 5 0 0 0;
#X connect 6 0 7 0;
#X connect 7 0 9 0;
#X connect 8 0 7 1;
#X connect 9 0 4 0;
#X connect 9 0 4 1;
