#N canvas 802 588 450 300 10;
#X obj 238 108 inlet ms;
#X obj 210 156 metro;
#X obj 168 117 loadbang;
#X obj 210 191 f;
#X obj 246 191 + 1;
#X obj 208 245 outlet;
#X connect 0 0 1 1;
#X connect 1 0 3 0;
#X connect 2 0 1 0;
#X connect 3 0 4 0;
#X connect 3 0 5 0;
#X connect 4 0 3 1;
