#N canvas 962 229 565 668 10;
#X obj 223 146 osc~ 2;
#X obj 237 181 *~ 100000;
#X obj 239 218 clip~ 0 1;
#X obj 243 265 lop~ 70;
#X obj 226 321 *~;
#X obj 191 365 *~ 0.2;
#X obj 194 414 dac~;
#X obj 181 292 osc~ 800;
#X obj 127 161 sig~ 1;
#X obj 136 277 -~;
#X obj 133 325 *~;
#X obj 56 206 osc~ 600;
#X connect 0 0 1 0;
#X connect 1 0 2 0;
#X connect 2 0 3 0;
#X connect 3 0 4 1;
#X connect 3 0 9 1;
#X connect 4 0 5 0;
#X connect 5 0 6 0;
#X connect 5 0 6 1;
#X connect 7 0 4 0;
#X connect 8 0 9 0;
#X connect 9 0 10 1;
#X connect 10 0 5 0;
#X connect 11 0 10 0;
