#N canvas 964 224 565 668 10;
#X obj 223 146 osc~ 2;
#X obj 237 181 *~ 100000;
#X obj 239 218 clip~ 0 1;
#X obj 149 260 osc~ 800;
#X obj 243 265 lop~ 70;
#X obj 194 324 *~;
#X obj 191 365 *~ 0.2;
#X obj 194 414 dac~;
#X connect 0 0 1 0;
#X connect 1 0 2 0;
#X connect 2 0 4 0;
#X connect 3 0 5 0;
#X connect 4 0 5 1;
#X connect 5 0 6 0;
#X connect 6 0 7 0;
#X connect 6 0 7 1;
