#N canvas 1294 280 565 668 10;
#X msg 100 92 500;
#X obj 87 152 fcounter;
#X obj 96 185 mod 3;
#X obj 94 223 trigger f f f;
#X obj 94 264 == 0;
#X obj 137 266 == 1;
#X obj 179 264 == 2;
#X obj 84 302 sig~;
#X obj 129 305 sig~;
#X obj 181 305 sig~;
#X obj 73 346 lop~ 70;
#X obj 135 346 lop~ 70;
#X obj 54 386 osc~ 723;
#X obj 118 382 osc~ 932;
#X obj 184 381 osc~ 1012;
#X obj 61 421 *~;
#X obj 119 420 *~;
#X obj 186 420 *~;
#X obj 107 465 *~ 0.2;
#X obj 110 515 dac~;
#X obj 195 344 lop~ 70;
#X connect 0 0 1 0;
#X connect 1 0 2 0;
#X connect 2 0 3 0;
#X connect 3 0 4 0;
#X connect 3 1 5 0;
#X connect 3 2 6 0;
#X connect 4 0 7 0;
#X connect 5 0 8 0;
#X connect 6 0 9 0;
#X connect 7 0 10 0;
#X connect 8 0 11 0;
#X connect 9 0 20 0;
#X connect 10 0 15 1;
#X connect 11 0 16 1;
#X connect 12 0 15 0;
#X connect 13 0 16 0;
#X connect 14 0 17 0;
#X connect 15 0 18 0;
#X connect 16 0 18 0;
#X connect 17 0 18 0;
#X connect 18 0 19 0;
#X connect 18 0 19 1;
#X connect 20 0 17 1;
