#N canvas 853 267 558 600 10;
#X obj 158 71 noise~;
#X obj 187 312 *~ 0.6;
#X obj 132 313 *~ 0.3;
#X obj 113 242 *~;
#X obj 153 116 lop~ 1;
#X obj 154 166 *~;
#X obj 78 117 hip~ 1000;
#X obj 153 192 *~;
#X obj 154 139 *~ 10;
#X obj 228 173 clip~ -0.9 0.9;
#X obj 228 193 hip~ 25;
#X obj 228 150 hip~ 25;
#X obj 228 217 *~ 0.6;
#X obj 338 458 hip~ 1000;
#X obj 143 457 bp~ 1200 0.6;
#X obj 60 456 bp~ 600 0.2;
#X obj 153 216 *~ 600;
#X obj 192 553 dac~;
#X floatatom 312 53 5 0.1 5 0 - - -;
#X obj 227 125 *~ 100;
#X obj 228 99 bp~ 30 5;
#X obj 232 455 bp~ 2600 0.4;
#X obj 196 501 *~ 0.2;
#X connect 0 0 4 0;
#X connect 0 0 6 0;
#X connect 0 0 20 0;
#X connect 1 0 15 0;
#X connect 1 0 14 0;
#X connect 1 0 21 0;
#X connect 1 0 13 0;
#X connect 2 0 15 0;
#X connect 2 0 14 0;
#X connect 2 0 21 0;
#X connect 2 0 13 0;
#X connect 3 0 2 0;
#X connect 4 0 8 0;
#X connect 5 0 7 0;
#X connect 5 0 7 1;
#X connect 6 0 3 0;
#X connect 7 0 16 0;
#X connect 8 0 5 0;
#X connect 8 0 5 1;
#X connect 9 0 10 0;
#X connect 10 0 12 0;
#X connect 11 0 9 0;
#X connect 12 0 1 0;
#X connect 13 0 22 0;
#X connect 14 0 22 0;
#X connect 15 0 22 0;
#X connect 16 0 3 1;
#X connect 18 0 20 2;
#X connect 19 0 11 0;
#X connect 20 0 19 0;
#X connect 21 0 22 0;
#X connect 22 0 17 0;
#X connect 22 0 17 1;
