#N canvas 1049 528 450 300 10;
#X obj 128 233 dac~;
#X floatatom 96 57 5 0 0 0 - - -;
#X obj 102 107 +;
#X floatatom 154 52 5 0 0 0 - - -;
#X floatatom 173 82 5 0 0 0 - - -;
#X floatatom 219 70 5 0 0 0 - - -;
#X obj 141 185 osc~;
#X obj 122 145 - 5;
#X obj 204 185 /;
#X obj 198 147 +;
#X connect 1 0 2 0;
#X connect 2 0 7 0;
#X connect 3 0 2 1;
#X connect 4 0 7 1;
#X connect 4 0 9 1;
#X connect 5 0 8 1;
#X connect 5 0 9 0;
#X connect 6 0 0 0;
#X connect 6 0 0 1;
#X connect 9 0 6 0;
#X connect 9 0 8 0;
