#N canvas 781 194 450 300 10;
#X obj 100 218 dac~;
#X floatatom 96 57 5 0 0 0 - - -;
#X obj 102 107 +;
#X floatatom 154 52 5 0 0 0 - - -;
#X floatatom 173 82 5 0 0 0 - - -;
#X floatatom 219 70 5 0 0 0 - - -;
#X obj 107 180 osc~;
#X obj 122 145 - 5;
#X connect 1 0 2 0;
#X connect 2 0 7 0;
#X connect 3 0 2 1;
#X connect 6 0 0 0;
#X connect 6 0 0 1;
#X connect 7 0 6 0;
