#N canvas 790 324 447 442 10;
#X obj 258 327 dac~;
#X msg 170 137 13;
#X msg 209 138 15;
#X msg 284 135 10;
#X msg 325 136 5;
#X obj 186 186 +;
#X obj 302 187 -;
#X obj 255 268 osc~;
#X obj 194 78 trigger b b b b;
#X floatatom 170 25 5 0 0 0 - - -;
#X obj 253 223 + 440.5;
#X connect 1 0 5 0;
#X connect 2 0 5 1;
#X connect 3 0 6 0;
#X connect 4 0 6 1;
#X connect 5 0 10 0;
#X connect 6 0 10 0;
#X connect 7 0 0 0;
#X connect 7 0 0 1;
#X connect 8 0 1 0;
#X connect 8 1 2 0;
#X connect 8 2 3 0;
#X connect 8 3 4 0;
#X connect 9 0 8 0;
#X connect 10 0 7 0;
