#N canvas 962 494 450 300 10;
#X floatatom 143 66 5 0 0 0 - - -;
#X obj 142 105 osc~ 440;
#X obj 134 254 dac~;
#X msg 218 154 1;
#X msg 177 152 0;
#X obj 130 197 *~ 1;
#X connect 0 0 1 0;
#X connect 1 0 5 0;
#X connect 3 0 5 1;
#X connect 4 0 5 1;
#X connect 5 0 2 0;
#X connect 5 0 2 1;
