#N canvas 1009 440 447 442 10;
#X obj 101 74 bng 15 250 50 0 empty empty empty 17 7 0 10 -262144 -1 -1;
#X obj 174 76 bng 15 250 50 0 empty empty empty 17 7 0 10 -262144 -1 -1;
#X msg 69 113 440;
#X msg 141 109 500;
#X obj 69 154 osc~;
#X obj 70 258 *~;
#X obj 71 297 dac~;
#X msg 101 209 1;
#X msg 174 209 2;
#X connect 0 0 2 0;
#X connect 0 0 7 0;
#X connect 1 0 3 0;
#X connect 1 0 8 0;
#X connect 2 0 4 0;
#X connect 3 0 4 0;
#X connect 4 0 5 0;
#X connect 5 0 6 0;
#X connect 5 0 6 1;
#X connect 7 0 5 1;
#X connect 8 0 5 1;
