#N canvas 1138 169 775 718 10;
#X obj 302 40 sig~;
#X obj 301 63 lop~ 0.2;
#X obj 253 492 *~ 0.5;
#X obj 251 528 +~;
#X obj 249 563 lop~ 11000;
#X obj 254 639 dac~;
#X obj 251 600 *~ 0.1;
#X obj 23 218 sig~;
#X obj 64 220 sig~;
#X obj 108 221 sig~;
#X obj 147 220 sig~;
#X obj 186 219 sig~;
#X msg 34 147 3097 4495 5588 7471 11000;
#X obj 26 259 *~;
#X obj 66 259 *~;
#X obj 108 259 *~;
#X obj 148 256 *~;
#X obj 188 256 *~;
#X obj 16 310 osc~;
#X obj 61 310 osc~;
#X obj 106 310 osc~;
#X obj 154 308 osc~;
#X obj 195 312 osc~;
#X obj 60 368 *~ 0.25;
#X obj 178 366 *~ 0.4;
#X obj 122 413 clip~ -0.9 0.9;
#X obj 48 179 unpack f f f f f;
#X obj 396 149 *~;
#X obj 396 198 *~ 150;
#X msg 451 198 1;
#X msg 487 198 0.6;
#X obj 373 235 noise~;
#X obj 374 338 hip~ 120;
#X obj 373 371 *~ 120;
#X obj 374 400 clip~ -1 1;
#X obj 404 423 *~ 12000;
#X floatatom 303 17 5 0.1 1 0 - - -;
#X obj 375 461 vcf~ 0 0.6;
#X obj 373 307 vcf~ 0 1;
#X obj 374 270 bp~ 8000 0.5;
#X connect 0 0 1 0;
#X connect 1 0 13 1;
#X connect 1 0 14 1;
#X connect 1 0 15 1;
#X connect 1 0 16 1;
#X connect 1 0 17 1;
#X connect 1 0 27 1;
#X connect 1 0 27 0;
#X connect 1 0 35 0;
#X connect 2 0 3 0;
#X connect 3 0 4 0;
#X connect 4 0 6 0;
#X connect 6 0 5 0;
#X connect 6 0 5 1;
#X connect 7 0 13 0;
#X connect 8 0 14 0;
#X connect 9 0 15 0;
#X connect 10 0 16 0;
#X connect 11 0 17 0;
#X connect 12 0 26 0;
#X connect 13 0 18 0;
#X connect 14 0 19 0;
#X connect 15 0 20 0;
#X connect 16 0 21 0;
#X connect 17 0 22 0;
#X connect 18 0 23 0;
#X connect 19 0 23 0;
#X connect 20 0 25 0;
#X connect 21 0 24 0;
#X connect 22 0 24 0;
#X connect 23 0 25 0;
#X connect 24 0 25 0;
#X connect 25 0 2 0;
#X connect 26 0 7 0;
#X connect 26 1 8 0;
#X connect 26 2 9 0;
#X connect 26 3 10 0;
#X connect 26 4 11 0;
#X connect 27 0 28 0;
#X connect 28 0 38 1;
#X connect 29 0 38 2;
#X connect 30 0 37 2;
#X connect 31 0 39 0;
#X connect 32 0 33 0;
#X connect 33 0 34 0;
#X connect 34 0 37 0;
#X connect 35 0 37 1;
#X connect 36 0 0 0;
#X connect 37 0 3 1;
#X connect 38 0 32 0;
#X connect 39 0 38 0;
