#N canvas 586 365 606 452 10;
#X floatatom 111 30 5 0 0 0 - - -;
#X floatatom 170 25 5 0 0 0 - - -;
#X floatatom 238 37 5 0 0 0 - - -;
#X floatatom 311 29 5 0 0 0 - - -;
#X floatatom 383 46 5 0 0 0 - - -;
#X obj 251 190 vline~;
#X msg 13 108 1 1000 \, 0.5 1000 1000 \, 0 1000 3000;
#X obj 164 272 osc~ 440;
#X obj 226 318 *~;
#X obj 228 368 dac~;
#X obj 248 118 myadsr;
#X obj 324 191 metro 100;
#X obj 332 150 tgl 15 0 empty empty empty 17 7 0 10 -262144 -1 -1 1
1;
#X obj 316 258 snapshot~;
#X floatatom 333 316 5 0 0 0 - - -;
#X connect 0 0 10 0;
#X connect 1 0 10 1;
#X connect 2 0 10 2;
#X connect 3 0 10 3;
#X connect 4 0 10 4;
#X connect 5 0 8 1;
#X connect 5 0 13 0;
#X connect 6 0 5 0;
#X connect 7 0 8 0;
#X connect 8 0 9 0;
#X connect 8 0 9 1;
#X connect 10 0 5 0;
#X connect 11 0 13 0;
#X connect 12 0 11 0;
#X connect 13 0 14 0;
