#N canvas 1075 263 624 492 10;
#X obj 114 111 inlet a;
#X obj 186 112 inlet d;
#X obj 251 112 inlet sl;
#X obj 324 113 inlet st;
#X obj 390 114 inlet r;
#X obj 117 299 pack f f f f f f;
#X obj 275 182 +;
#X obj 280 248 +;
#X obj 329 142 t b f;
#X obj 241 151 t b f;
#X obj 133 383 outlet;
#X msg 140 347 1 \$1 \, \$2 \$3 \$4 \, 0 \$5 \$6;
#X connect 0 0 5 0;
#X connect 0 0 5 3;
#X connect 0 0 6 0;
#X connect 1 0 5 2;
#X connect 1 0 9 0;
#X connect 2 0 5 1;
#X connect 3 0 8 0;
#X connect 4 0 5 4;
#X connect 5 0 11 0;
#X connect 6 0 7 0;
#X connect 7 0 5 5;
#X connect 8 0 7 0;
#X connect 8 1 7 1;
#X connect 9 0 6 0;
#X connect 9 1 6 1;
#X connect 11 0 10 0;
