#N canvas 666 209 750 598 10;
#X obj 237 374 noise~;
#X obj 238 406 bp~ 800 1;
#X obj 185 472 *~ 0.3;
#X obj 186 508 dac~;
#X obj 176 54 +~ 1;
#X obj 176 85 *~ 0.25;
#X obj 212 331 +~;
#X obj 182 362 +~;
#X obj 177 21 osc~ 0.1;
#X obj 183 408 +~ 0.2;
#X obj 184 436 *~;
#X obj 194 125 noise~;
#X obj 194 163 lop~ 0.5;
#X obj 194 199 lop~ 0.5;
#X obj 194 234 *~ 50;
#X obj 302 161 +~ 0.5;
#X obj 300 197 *~;
#X obj 300 233 -~ 0.125;
#X obj 235 271 *~;
#X obj 383 123 max~ 0.4;
#X obj 455 105 noise~;
#X obj 454 134 lop~ 3;
#X obj 454 161 lop~ 3;
#X obj 454 214 *~ 20;
#X obj 383 181 *~ 8;
#X obj 382 212 *~;
#X obj 382 256 *~;
#X obj 383 153 -~ 0.4;
#X obj 455 191 hip~ 0.001;
#X connect 0 0 1 0;
#X connect 1 0 10 1;
#X connect 2 0 3 0;
#X connect 2 0 3 1;
#X connect 4 0 5 0;
#X connect 5 0 7 0;
#X connect 5 0 15 0;
#X connect 5 0 19 0;
#X connect 6 0 7 1;
#X connect 7 0 9 0;
#X connect 8 0 4 0;
#X connect 9 0 10 0;
#X connect 10 0 2 0;
#X connect 11 0 12 0;
#X connect 12 0 13 0;
#X connect 13 0 14 0;
#X connect 14 0 18 0;
#X connect 15 0 16 0;
#X connect 15 0 16 1;
#X connect 16 0 17 0;
#X connect 17 0 18 1;
#X connect 18 0 6 0;
#X connect 19 0 27 0;
#X connect 20 0 21 0;
#X connect 21 0 22 0;
#X connect 22 0 28 0;
#X connect 23 0 26 1;
#X connect 24 0 25 0;
#X connect 24 0 25 1;
#X connect 25 0 26 0;
#X connect 26 0 6 1;
#X connect 27 0 24 0;
#X connect 28 0 23 0;
