#N canvas 1137 360 450 300 10;
#X obj 215 206 dac~;
#X floatatom 216 25 5 0 0 0 - - -;
#X obj 230 67 +;
#X floatatom 282 23 5 0 0 0 - - -;
#X obj 224 154 osc~ 440;
#X obj 227 111 +;
#X obj 300 153 osc~ 440;
#X floatatom 307 88 5 0 0 0 - - -;
#X floatatom 117 81 5 0 0 0 - - -;
#X floatatom 110 171 5 0 0 0 - - -;
#X floatatom 151 88 5 0 0 0 - - -;
#X obj 118 120 +;
#X connect 1 0 2 0;
#X connect 2 0 5 0;
#X connect 3 0 2 1;
#X connect 3 0 7 0;
#X connect 4 0 0 0;
#X connect 5 0 4 0;
#X connect 6 0 0 1;
#X connect 7 0 5 1;
#X connect 7 0 6 0;
#X connect 8 0 11 0;
#X connect 9 0 0 0;
#X connect 10 0 11 1;
#X connect 11 0 9 0;
