#N canvas 1185 466 450 432 10;
#X obj 85 127 mod 2;
#X obj 92 161 sig~;
#X obj 122 189 osc~ 2500;
#X obj 98 226 *~;
#X obj 90 255 *~ 0.2;
#X obj 98 295 dac~;
#X msg 86 35 100;
#X obj 83 92 fcounter;
#X connect 0 0 1 0;
#X connect 1 0 3 0;
#X connect 2 0 3 1;
#X connect 3 0 4 0;
#X connect 4 0 5 0;
#X connect 4 0 5 1;
#X connect 6 0 7 0;
#X connect 7 0 0 0;
