#N canvas 1187 461 450 432 10;
#X obj 86 57 metro 100;
#X obj 87 91 counter;
#X obj 85 127 mod 2;
#X obj 92 161 sig~;
#X obj 122 189 osc~ 2500;
#X obj 98 226 *~;
#X obj 90 255 *~ 0.2;
#X obj 98 295 dac~;
#X obj 99 7 bng 15 250 50 0 empty empty empty 17 7 0 10 -262144 -1
-1;
#X connect 0 0 1 0;
#X connect 1 0 2 0;
#X connect 2 0 3 0;
#X connect 3 0 5 0;
#X connect 4 0 5 1;
#X connect 5 0 6 0;
#X connect 6 0 7 0;
#X connect 6 0 7 1;
#X connect 8 0 0 0;
