#N canvas 920 129 565 668 10;
#X obj 144 247 fcounter;
#X obj 143 288 mod 6;
#X obj 154 343 < 2;
#X obj 150 394 sig~;
#X obj 176 536 dac~;
#X msg 158 190 20;
#X obj 176 489 tline;
#X obj 164 446 *~;
#X obj 229 296 sig~ 1;
#X obj 231 359 -~;
#X obj 254 332 delay~ 100;
#X connect 0 0 1 0;
#X connect 1 0 2 0;
#X connect 2 0 3 0;
#X connect 3 0 7 0;
#X connect 5 0 0 0;
#X connect 6 0 4 0;
#X connect 6 0 4 1;
#X connect 7 0 6 0;
#X connect 8 0 9 0;
#X connect 8 0 10 0;
#X connect 9 0 7 1;
#X connect 10 0 9 1;
