#N canvas 914 144 565 668 10;
#X obj 153 62 fcounter;
#X obj 152 103 mod 6;
#X obj 163 158 < 2;
#X obj 159 209 sig~;
#X obj 138 519 dac~;
#X msg 167 5 20;
#X obj 137 246 clip~ -0.9 0.9;
#X obj 134 280 bp~ 2000 12;
#X obj 93 317 *~ 0.5;
#X obj 163 316 clip~ -0.4 0.4;
#X obj 179 355 *~ 0.15;
#X obj 147 397 hip~ 90;
#X obj 143 441 hip~ 90;
#X obj 95 356 bp~ 400 3;
#X obj 141 473 *~ 0.8;
#X connect 0 0 1 0;
#X connect 1 0 2 0;
#X connect 2 0 3 0;
#X connect 3 0 6 0;
#X connect 5 0 0 0;
#X connect 6 0 7 0;
#X connect 7 0 9 0;
#X connect 7 0 8 0;
#X connect 8 0 13 0;
#X connect 9 0 10 0;
#X connect 10 0 11 0;
#X connect 11 0 12 0;
#X connect 12 0 14 0;
#X connect 13 0 11 0;
#X connect 14 0 4 0;
#X connect 14 0 4 1;
