#N canvas 1206 195 450 762 10;
#X obj 141 101 fcounter;
#X msg 148 55 1000;
#X obj 139 132 mod 6;
#X obj 139 176 > 2;
#X obj 140 207 sig~;
#X obj 139 232 lop~ 100;
#X obj 136 267 *~;
#X obj 30 113 osc~ 480;
#X obj 87 111 osc~ 440;
#X obj 38 157 +~;
#X obj 139 325 *~;
#X msg 178 295 1;
#X obj 120 361 clip~ -0.9 0.9;
#X obj 117 395 bp~ 2000 12;
#X obj 76 432 *~ 0.5;
#X obj 146 431 clip~ -0.4 0.4;
#X obj 78 471 bp~ 4000 3;
#X obj 162 470 *~ 0.15;
#X obj 130 512 hip~ 90;
#X obj 126 556 hip~ 90;
#X obj 127 597 dac~;
#X connect 0 0 2 0;
#X connect 1 0 0 0;
#X connect 2 0 3 0;
#X connect 3 0 4 0;
#X connect 4 0 5 0;
#X connect 5 0 6 1;
#X connect 6 0 10 0;
#X connect 7 0 9 0;
#X connect 8 0 9 1;
#X connect 9 0 6 0;
#X connect 10 0 12 0;
#X connect 11 0 10 1;
#X connect 12 0 13 0;
#X connect 13 0 15 0;
#X connect 13 0 14 0;
#X connect 14 0 16 0;
#X connect 15 0 17 0;
#X connect 16 0 18 0;
#X connect 17 0 18 0;
#X connect 18 0 19 0;
#X connect 19 0 20 0;
