#N canvas 1380 121 450 502 10;
#X obj 103 46 osc~ 440;
#X obj 217 43 delread~ A 101;
#X obj 234 67 delread~ B 143;
#X obj 252 93 delread~ C 165;
#X obj 271 124 delread~ D 177;
#X obj 104 91 +~;
#X obj 146 91 +~;
#X obj 106 160 +~;
#X obj 212 166 +~;
#X obj 152 159 -~;
#X obj 251 166 -~;
#X obj 145 216 +~;
#X obj 106 217 +~;
#X obj 176 216 -~;
#X obj 213 215 -~;
#X obj 106 264 *~ 0.4;
#X obj 155 292 *~ 0.37;
#X obj 203 314 *~ 0.333;
#X obj 255 338 *~ 0.3;
#X obj 255 378 delwrite~ D 1000;
#X obj 218 398 delwrite~ C 1000;
#X obj 169 418 delwrite~ B 1000;
#X obj 130 438 delwrite~ A 1000;
#X obj 40 190 dac~;
#X floatatom 94 15 5 0 0 0 - - -;
#X connect 0 0 5 0;
#X connect 0 0 6 0;
#X connect 1 0 5 1;
#X connect 2 0 6 1;
#X connect 3 0 8 0;
#X connect 3 0 10 0;
#X connect 4 0 8 1;
#X connect 4 0 10 1;
#X connect 5 0 23 0;
#X connect 5 0 7 0;
#X connect 5 0 9 0;
#X connect 6 0 23 1;
#X connect 6 0 9 1;
#X connect 6 0 7 1;
#X connect 7 0 12 0;
#X connect 7 0 13 0;
#X connect 8 0 12 1;
#X connect 8 0 13 1;
#X connect 9 0 11 0;
#X connect 9 0 14 0;
#X connect 10 0 11 1;
#X connect 10 0 14 1;
#X connect 11 0 16 0;
#X connect 12 0 15 0;
#X connect 13 0 17 0;
#X connect 14 0 18 0;
#X connect 15 0 22 0;
#X connect 16 0 21 0;
#X connect 17 0 20 0;
#X connect 18 0 19 0;
#X connect 24 0 0 0;
