#N canvas 66 87 299 343 10;
#X obj 113 -110 clip~ -0.9 0.9;
#X obj 110 -76 bp~ 2000 12;
#X obj 69 -39 *~ 0.5;
#X obj 139 -40 clip~ -0.4 0.4;
#X obj 155 -1 *~ 0.15;
#X obj 123 41 hip~ 90;
#X obj 119 85 hip~ 90;
#X obj 71 0 bp~ 400 3;
#X obj 117 117 *~ 0.8;
#X obj 141 -147 inlet~;
#X obj 126 147 outlet~;
#X connect 0 0 1 0;
#X connect 1 0 3 0;
#X connect 1 0 2 0;
#X connect 2 0 7 0;
#X connect 3 0 4 0;
#X connect 4 0 5 0;
#X connect 5 0 6 0;
#X connect 6 0 8 0;
#X connect 7 0 5 0;
#X connect 8 0 10 0;
#X connect 9 0 0 0;
