#N canvas 1114 138 450 530 10;
#X obj 70 41 noise~;
#X obj 180 55 osc~ 9;
#X obj 70 155 *~;
#X obj 119 186 *~ 600;
#X obj 120 219 clip~ 0 1;
#X obj 215 245 noise~;
#X obj 118 250 hip~ 10;
#X obj 117 279 lop~ 30;
#X obj 113 312 *~;
#X obj 221 271 hip~ 1000;
#X obj 71 124 bp~ 9 9;
#X obj 217 300 bp~ 590 4;
#X obj 63 343 bp~ 470 8;
#X obj 130 344 bp~ 780 9;
#X obj 119 382 hip~ 100;
#X obj 199 345 bp~ 1024 9;
#X obj 126 414 *~ 2;
#X obj 113 454 dac~;
#X obj 141 76 tgl 15 0 empty empty empty 17 7 0 10 -262144 -1 -1 0 1;
#X obj 213 109 == 0;
#X obj 154 155 *~;
#X connect 0 0 10 0;
#X connect 1 0 20 0;
#X connect 2 0 3 0;
#X connect 3 0 4 0;
#X connect 4 0 6 0;
#X connect 5 0 9 0;
#X connect 6 0 7 0;
#X connect 7 0 8 0;
#X connect 8 0 12 0;
#X connect 8 0 13 0;
#X connect 8 0 15 0;
#X connect 9 0 11 0;
#X connect 10 0 2 0;
#X connect 11 0 8 1;
#X connect 12 0 14 0;
#X connect 13 0 14 0;
#X connect 14 0 16 0;
#X connect 15 0 14 0;
#X connect 16 0 17 0;
#X connect 16 0 17 1;
#X connect 18 0 2 1;
#X connect 18 0 19 0;
#X connect 19 0 20 1;
#X connect 20 0 3 0;
