#N canvas 66 82 591 697 10;
#X obj 150 175 sig~;
#X obj 191 177 sig~;
#X obj 235 178 sig~;
#X obj 274 177 sig~;
#X obj 313 176 sig~;
#X msg 161 104 3097 4495 5588 7471 11000;
#X obj 153 216 *~;
#X obj 193 216 *~;
#X obj 235 216 *~;
#X obj 275 213 *~;
#X obj 315 213 *~;
#X obj 143 267 osc~;
#X obj 188 267 osc~;
#X obj 233 267 osc~;
#X obj 281 265 osc~;
#X obj 322 269 osc~;
#X obj 187 325 *~ 0.25;
#X obj 305 323 *~ 0.4;
#X obj 249 370 clip~ -0.9 0.9;
#X obj 175 136 unpack f f f f f;
#X obj 158 45 loadbang;
#X obj 270 51 inlet~ engine speed;
#X obj 261 410 outlet~;
#X connect 0 0 6 0;
#X connect 1 0 7 0;
#X connect 2 0 8 0;
#X connect 3 0 9 0;
#X connect 4 0 10 0;
#X connect 5 0 19 0;
#X connect 6 0 11 0;
#X connect 7 0 12 0;
#X connect 8 0 13 0;
#X connect 9 0 14 0;
#X connect 10 0 15 0;
#X connect 11 0 16 0;
#X connect 12 0 16 0;
#X connect 13 0 18 0;
#X connect 14 0 17 0;
#X connect 15 0 17 0;
#X connect 16 0 18 0;
#X connect 17 0 18 0;
#X connect 18 0 22 0;
#X connect 19 0 0 0;
#X connect 19 1 1 0;
#X connect 19 2 2 0;
#X connect 19 3 3 0;
#X connect 19 4 4 0;
#X connect 20 0 5 0;
#X connect 21 0 6 1;
#X connect 21 0 7 1;
#X connect 21 0 8 1;
#X connect 21 0 9 1;
#X connect 21 0 10 1;
