#N canvas 66 82 717 880 10;
#X msg 199 109 5;
#X obj 190 171 t b f;
#X obj 232 225 * 100;
#X obj 240 264 delay;
#X msg 168 294 1;
#X msg 236 301 0;
#X obj 176 339 metro 100;
#X obj 154 390 t b b;
#X obj 218 427 del 40;
#X obj 150 460 + 1;
#X obj 203 460 == 0;
#X obj 146 499 sig~;
#X obj 177 791 dac~;
#X obj 165 537 clip~ -0.9 0.9;
#X obj 162 571 bp~ 2000 12;
#X obj 121 608 *~ 0.5;
#X obj 191 607 clip~ -0.4 0.4;
#X obj 207 646 *~ 0.15;
#X obj 175 688 hip~ 90;
#X obj 171 732 hip~ 90;
#X obj 123 647 bp~ 400 3;
#X obj 190 767 *~ 0.8;
#X obj 217 378 bng 15 250 50 0 empty empty empty 17 7 0 10 -262144
-1 -1;
#X floatatom 193 492 5 0 0 0 - - -;
#X connect 0 0 1 0;
#X connect 1 0 4 0;
#X connect 1 1 2 0;
#X connect 2 0 3 0;
#X connect 3 0 5 0;
#X connect 4 0 6 0;
#X connect 5 0 6 0;
#X connect 6 0 7 0;
#X connect 6 0 22 0;
#X connect 7 0 9 0;
#X connect 7 1 8 0;
#X connect 8 0 9 0;
#X connect 9 0 11 0;
#X connect 9 0 10 0;
#X connect 9 0 23 0;
#X connect 10 0 9 1;
#X connect 11 0 13 0;
#X connect 13 0 14 0;
#X connect 14 0 16 0;
#X connect 14 0 15 0;
#X connect 15 0 20 0;
#X connect 16 0 17 0;
#X connect 17 0 18 0;
#X connect 18 0 19 0;
#X connect 19 0 21 0;
#X connect 20 0 18 0;
#X connect 21 0 12 0;
#X connect 21 0 12 1;
