#N canvas 1251 239 447 442 10;
#X floatatom 116 56 5 0 0 0 - - -;
#X obj 125 151 + 1;
#X floatatom 120 196 5 0 0 0 - - -;
#X floatatom 196 195 5 0 0 0 - - -;
#X obj 114 235 * 5;
#X obj 203 238 / 4;
#X floatatom 125 287 5 0 0 0 - - -;
#X floatatom 204 288 5 0 0 0 - - -;
#X obj 177 328 +;
#X obj 179 386 dac~;
#X obj 119 107 trigger f f;
#X obj 185 148 pow 2;
#X connect 0 0 10 0;
#X connect 1 0 2 0;
#X connect 2 0 4 0;
#X connect 3 0 5 0;
#X connect 4 0 6 0;
#X connect 5 0 7 0;
#X connect 6 0 8 0;
#X connect 7 0 8 1;
#X connect 8 0 9 0;
#X connect 10 0 1 0;
#X connect 10 1 11 0;
#X connect 11 0 3 0;
